<svg xmlns="http://www.w3.org/2000/svg" width="80" height="82" viewBox="0 0 80 82">
  <g fill="none" fill-rule="evenodd">
    <text fill="#2C3644" font-family="ComicSansMS-Bold, Comic Sans MS" font-size="16" font-weight="bold">
      <tspan x="27.996" y="63">SHWE</tspan>
    </text>
    <g fill="#050505">
      <path d="M15.4141302 26.2718447L25.6633035 31.1132548C28.0018519 55.6192441 27.1227805 71.3148975 23.0260893 78.2002149 16.8810525 88.528191 2.47567728 74.6897832.609768888 73.2207822-.634170041 72.2414481.0251335002 68.2104787 2.58767951 61.127874 11.3783934 64.2115597 15.7737503 62.0775171 15.7737503 54.7257462 15.7737503 47.3739753 15.653877 37.8893414 15.4141302 26.2718447zM34.8004047 0L43.5467709 8.83898495C46.5155903 15.8472416 48 22.2833957 48 28.1474472 48 34.0114987 46.4714243 40.5513464 43.4142729 47.7669903L34.6403127 47.4559095C31.5497606 37.3420905 30.2692941 31.1812608 30.798913 28.9734203 30.9784941 28.2247942 32.1978843 30.4722032 33.4665741 30.5395512 33.823061 30.5584752 34.535406 31.1413725 34.8004047 30.5395512 34.8785615 30.3620543 37.1691305 29.6212291 37.5380657 28.6515733 37.593366 28.50623 37.6504437 28.3557455 37.7088525 28.2012463 38.5734567 25.9142488 38.1349811 23.101531 38.1349811 22.708897 38.1349811 20.5683332 40.927739 20.2009094 40.1357269 18.79357 39.8967383 18.3689071 38.2368392 16.8838571 36.1342352 14.8782429 34.0662126 12.9056148 33.5544717 9.63404881 33.4665741 8.61371956 33.3491914 7.25112279 33.7938016 4.37988293 34.8004047 0z"/>
      <path d="M33.5441532,16.7184466 C34.0223575,16.7184466 34.6986405,16.1837964 34.6986405,15.5242718 C34.6986405,14.8647473 34.0223575,14.3300971 33.5441532,14.3300971 C33.0659489,14.3300971 31.8124223,14.8647473 31.8124223,15.5242718 C31.8124223,16.1837964 33.0659489,16.7184466 33.5441532,16.7184466 Z"/>
      <ellipse cx="37.104" cy="25.476" rx="1.443" ry="1"/>
      <path d="M17.4822918,10.5368361 L32.774495,0 L31.2452747,9.36607653 L29.7160544,19.9029126 C28.3261708,25.423628 27.0518205,28.3427218 25.8930036,28.6601942 C22.8120049,29.5042722 18.3884417,26.1694697 17.4822918,25.4757282 C16.0649141,24.3905944 16.0649141,19.4109637 17.4822918,10.5368361 Z"/>
    </g>
  </g>
</svg>
